# xmcd CD database file
#
# Track frame offsets:
#	150
#	19140
#	32851
#	51776
#	78632
#	95140
#	119982
#	135986
#	159588
#	183561
#	203749
#	222947
#	233033
#
# Disc length: 3487 seconds
#
# Revision: 0
# Processed by: cddbd v1.5.2PL0 Copyright (c) Steve Scherf et al.
# Submitted via: CDex 2.10
#
DISCID=bb0d9d0d
DTITLE=Neil Murray - Blood and Longing
DYEAR=2019
DGENRE=Country
TTITLE0=Hills of Burra
TTITLE1=The footsteps of Blackfella Bob
TTITLE2=Byjantic Man
TTITLE3=Cry my Darling
TTITLE4=Every time I turn around
TTITLE5=Kind of Day
TTITLE6=Dja Dja Wurrung, Dja Dja Wurrung
TTITLE7=Who will ride with Stuart?
TTITLE8=Waiting to be born
TTITLE9=My secret heart
TTITLE10=Come too far now
TTITLE11=Old land (instrumental)
TTITLE12=Let the dead rise up
EXTD=YEAR: 2019
EXTT0=
EXTT1=
EXTT2=
EXTT3=
EXTT4=
EXTT5=
EXTT6=
EXTT7=
EXTT8=
EXTT9=
EXTT10=
EXTT11=
EXTT12=
PLAYORDER=
